<svg version="1.2" baseProfile="tiny-ps" xmlns="http://www.w3.org/2000/svg" viewBox="0 0 586 586" width="586" height="586">
	<title>Forma 1</title>
	<style>
		tspan { white-space:pre }
		.shp0 { fill: #000000 } 
	</style>
	<path id="Forma 1" class="shp0" d="M565.07 465.43L401.78 302.12C414.93 274.62 422.34 243.78 422.34 211.26C422.34 94.81 327.66 0 211.11 0C94.68 0 0 94.81 0 211.26C0 327.7 94.68 422.39 211.11 422.39C243.63 422.39 274.47 414.98 301.96 401.83L465.26 565.14C509.01 604 552.52 576.74 565.07 565.14C575.11 555.82 605 510.15 565.07 465.43ZM211.11 397.53C108.42 397.53 24.86 313.96 24.86 211.26C24.86 108.56 108.42 24.99 211.11 24.99C313.8 24.99 397.36 108.56 397.36 211.26C397.48 313.96 313.92 397.53 211.11 397.53ZM547.5 547.57C529.69 565.38 500.76 565.38 482.95 547.57L324.67 389.28C350.62 372.66 372.61 350.66 389.23 324.72L547.5 483.01C572.96 510.87 556.11 538.96 547.5 547.57Z" />
</svg>